<?xml version="1.0" encoding="iso-8859-1"?>
<!-- Generator: Adobe Illustrator 16.0.0, SVG Export Plug-In . SVG Version: 6.00 Build 0)  -->
<!DOCTYPE svg PUBLIC "-//W3C//DTD SVG 1.1//EN" "http://www.w3.org/Graphics/SVG/1.1/DTD/svg11.dtd">
<svg version="1.1" id="Capa_1" xmlns="http://www.w3.org/2000/svg" xmlns:xlink="http://www.w3.org/1999/xlink" x="0px" y="0px"
	 width="102.161px" height="102.161px" viewBox="0 0 102.161 102.161" style="enable-background:new 0 0 102.161 102.161;"
	 xml:space="preserve">
<g>
	<g>
		<path d="M20.521,65.11c1.315,3.814,3.207,7.088,5.673,9.818c2.468,2.729,5.147,4.75,8.042,6.066
			c2.895,1.316,5.97,1.975,9.226,1.975c3.257,0,6.331-0.625,9.226-1.875c2.894-1.25,5.542-3.24,7.942-5.97
			c2.401-2.729,4.228-6.067,5.478-10.017H36.9H20.521V65.11z"/>
		<path d="M33.446,49.717c0-2.17-0.771-4.028-2.317-5.574c-1.546-1.546-3.404-2.319-5.575-2.319s-4.028,0.773-5.575,2.319
			c-1.546,1.546-2.318,3.404-2.318,5.574c0,0.658,0.099,1.316,0.296,1.975h15.195C33.348,51.034,33.446,50.375,33.446,49.717z"/>
		<path d="M101.014,4.356c-0.74-0.74-1.724-1.147-2.771-1.147s-2.03,0.407-2.771,1.147L91.74,8.088l5.541,5.542l3.732-3.732
			c0.74-0.74,1.147-1.725,1.147-2.771S101.755,5.099,101.014,4.356z M100.354,9.238l-3.072,3.072l-4.221-4.221l3.072-3.072
			C97.26,3.891,100.917,8.674,100.354,9.238z"/>
		<path d="M90.393,9.047L74.165,25.274c-0.09-0.089-0.173-0.185-0.263-0.273c-3.883-3.848-8.487-6.923-13.814-9.226
			c-5.328-2.302-10.919-3.453-16.773-3.453s-11.446,1.151-16.774,3.453c-5.327,2.303-9.933,5.378-13.814,9.226
			c-3.88,3.848-6.972,8.452-9.274,13.813C1.151,44.175,0,49.784,0,55.637c0,5.855,1.151,11.445,3.453,16.773
			c2.303,5.328,5.395,9.934,9.274,13.814c3.882,3.881,8.487,6.972,13.814,9.273c5.328,2.303,10.919,3.453,16.773,3.453
			S54.76,97.8,60.088,95.499c5.327-2.303,9.934-5.395,13.814-9.273c3.881-3.883,6.972-8.486,9.273-13.815
			c2.303-5.327,3.453-10.917,3.453-16.772c0-5.854-1.15-11.462-3.453-16.823c-1.068-2.487-2.313-4.805-3.723-6.967l16.869-16.869
			L90.393,9.047z M75.037,37.235c3.255,5.625,4.883,11.758,4.883,18.402c0,6.645-1.628,12.777-4.884,18.402
			c-3.257,5.623-7.696,10.062-13.319,13.318c-5.625,3.257-11.759,4.886-18.402,4.886c-6.645,0-12.778-1.629-18.402-4.886
			c-5.624-3.256-10.063-7.695-13.32-13.319c-3.255-5.624-4.884-11.758-4.884-18.401c0-6.645,1.629-12.777,4.884-18.402
			c3.257-5.624,7.696-10.063,13.32-13.32c5.624-3.256,11.758-4.884,18.402-4.884s12.777,1.628,18.402,4.885
			c2.913,1.688,5.504,3.699,7.782,6.023L53.936,45.502c-3.912,0.252-6.876,1.692-6.938,1.724l1.251,2.509
			c0.45-0.225,11.104-5.347,17.336,4.625l2.377-1.484c-1.395-2.229-2.979-3.829-4.636-4.961c0.118-0.095,0.243-0.179,0.353-0.288
			L74.664,36.64C74.786,36.84,74.918,37.032,75.037,37.235z"/>
	</g>
</g>
<g>
</g>
<g>
</g>
<g>
</g>
<g>
</g>
<g>
</g>
<g>
</g>
<g>
</g>
<g>
</g>
<g>
</g>
<g>
</g>
<g>
</g>
<g>
</g>
<g>
</g>
<g>
</g>
<g>
</g>
</svg>
